<svg xmlns="http://www.w3.org/2000/svg" width="1000" height="266"><g fill-rule="evenodd"><path fill="#ecece1" stroke="#a4a39d" stroke-linecap="round" stroke-linejoin="round" stroke-width="12.4" d="M8.4 197c0 22.6 0 34 4.8 42.5q5.1 9.2 14.3 14.3c8.5 4.7 19.8 4.7 42.4 4.7h861c22.7 0 34 0 42.6-4.7q9.2-5.2 14.3-14.3c4.7-8.5 4.7-19.9 4.7-42.5V69.2c0-22.7 0-34-4.7-42.5q-5.2-9.2-14.3-14.3C965 7.6 953.6 7.6 931 7.6H70c-22.7 0-34 0-42.5 4.8q-9.2 5.2-14.3 14.3c-4.8 8.5-4.8 19.8-4.8 42.5Z"/><path fill="#5d5d5e" d="M756.4 185.7q-14.1 0-19.8-8.1a36 36 0 0 1-5.6-21.2v-42.6h-12.2V101l13-1 2-26.5h14.3v26.6h22v13.7h-22v42.7q0 7.6 2.9 11.5 2.7 4 9.5 4 2.3 0 4.5-.4t4.6-1.5l3.2 11.8q-3.2 1.8-7.5 2.8-4.4 1-9 1M642 184V62.3h16.8v79h.5l33-41.2h18.8L683 134.2l31.6 49.8H696l-23-38.3-14.1 16.5V184Zm-67.8 2q-7.1 0-12.8-2.9-5.5-2.8-8.7-8.4-3.2-5.5-3.2-12.8 0-14.3 12-21.5 12.3-7.2 38.4-10.1 0-4.6-1.4-8.8-1.5-4.2-5-6.7a17 17 0 0 0-9.9-2.5q-6.6 0-12.7 2.4-6.2 2.4-11.6 5.8l-6.4-11.7a83 83 0 0 1 21-9.2q6.2-1.5 12.8-1.6a31 31 0 0 1 17 4.3q6.7 4.4 10 12.2a50 50 0 0 1 3.2 19V184h-14l-1.2-9.6h-.7a71 71 0 0 1-12.5 8.2 31 31 0 0 1-14.3 3.5m5.2-13.8q5.4 0 10.3-2.5t10.2-7.3v-20.1a107 107 0 0 0-20.1 4q-7.5 2.5-10.7 6a12 12 0 0 0-3.1 8.4q0 6 3.8 8.8 3.9 2.7 9.6 2.7M495.4 184v-84h13.9l1.3 15.2h.6q4.2-8.1 10.5-12.6a22 22 0 0 1 18.4-4.1q2 .3 4 1.3l-3.4 14.5a32 32 0 0 0-8-1q-5.1 0-10.7 4-5.7 4-9.6 14.2V184Zm-33.8 1.7q-14.1 0-19.8-8.1a36 36 0 0 1-5.6-21.2v-42.6H424V101l13-1 2-26.5h14.3v26.6h22v13.7h-22v42.7q0 7.6 2.9 11.5 2.8 4 9.5 4 2.3 0 4.5-.4 2.4-.5 4.6-1.5l3.2 11.8q-3.2 1.8-7.5 2.8t-9 1M349.7 184v-9l41.7-61.2h-37v-13.7h58.4v9L371 170.4h43.2V184Zm-44.3 2q-9 0-17.3-3.1a42 42 0 0 1-14.2-9l7.5-9.8q5.7 4.5 11.5 6.7t13 2.2q7.5 0 11.3-3.3 3.6-3.4 3.7-8.2 0-3.7-2.7-6.4-2.6-2.7-6.8-4.5-4-1.7-8.7-3.5-6.1-2.3-11.8-5.4a29 29 0 0 1-9-7.8q-3.4-4.6-3.4-11.3 0-10.7 8-17.6t21.8-7a41 41 0 0 1 27 9.8l-7.6 9.8q-4.5-3-9-4.8a29 29 0 0 0-10.2-1.7q-7 0-10.5 3.1a10 10 0 0 0-3.4 7.5q0 3.4 2.2 5.8a18 18 0 0 0 6 4q3.8 1.7 9.1 3.6 6.6 2.3 12.3 5.3t9.3 8a20 20 0 0 1 3.5 12 24 24 0 0 1-14.2 22.2 39 39 0 0 1-17.4 3.5m-80.8 0q-5.7 0-11.7-2.8-6.2-2.8-11.6-8h-.5l-1.6 8.8h-13.4V62.3h17v32.3l-.5 14.6q5.5-4.8 12-8t13.2-3.2a30 30 0 0 1 18 5.4 33 33 0 0 1 11.3 14.8 60 60 0 0 1 3.8 22.6q0 14.2-5 24.4a38 38 0 0 1-13.3 15.5 32 32 0 0 1-17.7 5.4m-3.3-14q6.3 0 11.2-3.6 5-3.6 7.8-10.6a45 45 0 0 0 2.8-16.9 50 50 0 0 0-2-15.2 20 20 0 0 0-6.5-10 18 18 0 0 0-11.5-3.4q-4.8 0-9.9 2.6a44 44 0 0 0-10.4 7.7V164a30 30 0 0 0 18.5 7.9m-105 14q-7.2 0-12.7-2.9-5.7-2.8-8.8-8.4-3.2-5.5-3.2-12.8 0-14.3 12.1-21.5t38.4-10.1q0-4.6-1.5-8.8t-5-6.7a17 17 0 0 0-9.8-2.5q-6.7 0-12.8 2.4t-11.6 5.8l-6.3-11.7a83 83 0 0 1 21-9.2q6-1.5 12.8-1.6a31 31 0 0 1 17 4.3q6.6 4.4 9.9 12.2a50 50 0 0 1 3.3 19V184H145l-1.2-9.6h-.7a71 71 0 0 1-12.4 8.2 31 31 0 0 1-14.4 3.5m5.2-13.8q5.4 0 10.4-2.5 4.8-2.5 10.2-7.3v-20.1a107 107 0 0 0-20.2 4q-7.5 2.5-10.6 6a12 12 0 0 0-3.2 8.4q0 6 3.9 8.8 3.8 2.7 9.5 2.7M848.8 176l-8-6.8 22.5-29.7L841 110l8-7 27.8 27.9v17.3Zm42 0-7.9-6.8 22.4-29.7L883 110l8-7 27.9 27.9v17.3Z"/></g></svg>