<svg xmlns="http://www.w3.org/2000/svg">
  <symbol overflow="visible" id="absztrakt" viewBox="0 0 1000 266">
    <g fill-rule="evenodd"><path fill="#ecece1" stroke="#a4a39d" stroke-linecap="round" stroke-linejoin="round" stroke-width="12.4" d="M8.4 197c0 22.6 0 34 4.8 42.5q5.1 9.2 14.3 14.3c8.5 4.7 19.8 4.7 42.4 4.7h861c22.7 0 34 0 42.6-4.7q9.2-5.2 14.3-14.3c4.7-8.5 4.7-19.9 4.7-42.5V69.2c0-22.7 0-34-4.7-42.5q-5.2-9.2-14.3-14.3C965 7.6 953.6 7.6 931 7.6H70c-22.7 0-34 0-42.5 4.8q-9.2 5.2-14.3 14.3c-4.8 8.5-4.8 19.8-4.8 42.5Z"/><path fill="#5d5d5e" d="M756.4 185.7q-14.1 0-19.8-8.1a36 36 0 0 1-5.6-21.2v-42.6h-12.2V101l13-1 2-26.5h14.3v26.6h22v13.7h-22v42.7q0 7.6 2.9 11.5 2.7 4 9.5 4 2.3 0 4.5-.4t4.6-1.5l3.2 11.8q-3.2 1.8-7.5 2.8-4.4 1-9 1M642 184V62.3h16.8v79h.5l33-41.2h18.8L683 134.2l31.6 49.8H696l-23-38.3-14.1 16.5V184Zm-67.8 2q-7.1 0-12.8-2.9-5.5-2.8-8.7-8.4-3.2-5.5-3.2-12.8 0-14.3 12-21.5 12.3-7.2 38.4-10.1 0-4.6-1.4-8.8-1.5-4.2-5-6.7a17 17 0 0 0-9.9-2.5q-6.6 0-12.7 2.4-6.2 2.4-11.6 5.8l-6.4-11.7a83 83 0 0 1 21-9.2q6.2-1.5 12.8-1.6a31 31 0 0 1 17 4.3q6.7 4.4 10 12.2a50 50 0 0 1 3.2 19V184h-14l-1.2-9.6h-.7a71 71 0 0 1-12.5 8.2 31 31 0 0 1-14.3 3.5m5.2-13.8q5.4 0 10.3-2.5t10.2-7.3v-20.1a107 107 0 0 0-20.1 4q-7.5 2.5-10.7 6a12 12 0 0 0-3.1 8.4q0 6 3.8 8.8 3.9 2.7 9.6 2.7M495.4 184v-84h13.9l1.3 15.2h.6q4.2-8.1 10.5-12.6a22 22 0 0 1 18.4-4.1q2 .3 4 1.3l-3.4 14.5a32 32 0 0 0-8-1q-5.1 0-10.7 4-5.7 4-9.6 14.2V184Zm-33.8 1.7q-14.1 0-19.8-8.1a36 36 0 0 1-5.6-21.2v-42.6H424V101l13-1 2-26.5h14.3v26.6h22v13.7h-22v42.7q0 7.6 2.9 11.5 2.8 4 9.5 4 2.3 0 4.5-.4 2.4-.5 4.6-1.5l3.2 11.8q-3.2 1.8-7.5 2.8t-9 1M349.7 184v-9l41.7-61.2h-37v-13.7h58.4v9L371 170.4h43.2V184Zm-44.3 2q-9 0-17.3-3.1a42 42 0 0 1-14.2-9l7.5-9.8q5.7 4.5 11.5 6.7t13 2.2q7.5 0 11.3-3.3 3.6-3.4 3.7-8.2 0-3.7-2.7-6.4-2.6-2.7-6.8-4.5-4-1.7-8.7-3.5-6.1-2.3-11.8-5.4a29 29 0 0 1-9-7.8q-3.4-4.6-3.4-11.3 0-10.7 8-17.6t21.8-7a41 41 0 0 1 27 9.8l-7.6 9.8q-4.5-3-9-4.8a29 29 0 0 0-10.2-1.7q-7 0-10.5 3.1a10 10 0 0 0-3.4 7.5q0 3.4 2.2 5.8a18 18 0 0 0 6 4q3.8 1.7 9.1 3.6 6.6 2.3 12.3 5.3t9.3 8a20 20 0 0 1 3.5 12 24 24 0 0 1-14.2 22.2 39 39 0 0 1-17.4 3.5m-80.8 0q-5.7 0-11.7-2.8-6.2-2.8-11.6-8h-.5l-1.6 8.8h-13.4V62.3h17v32.3l-.5 14.6q5.5-4.8 12-8t13.2-3.2a30 30 0 0 1 18 5.4 33 33 0 0 1 11.3 14.8 60 60 0 0 1 3.8 22.6q0 14.2-5 24.4a38 38 0 0 1-13.3 15.5 32 32 0 0 1-17.7 5.4m-3.3-14q6.3 0 11.2-3.6 5-3.6 7.8-10.6a45 45 0 0 0 2.8-16.9 50 50 0 0 0-2-15.2 20 20 0 0 0-6.5-10 18 18 0 0 0-11.5-3.4q-4.8 0-9.9 2.6a44 44 0 0 0-10.4 7.7V164a30 30 0 0 0 18.5 7.9m-105 14q-7.2 0-12.7-2.9-5.7-2.8-8.8-8.4-3.2-5.5-3.2-12.8 0-14.3 12.1-21.5t38.4-10.1q0-4.6-1.5-8.8t-5-6.7a17 17 0 0 0-9.8-2.5q-6.7 0-12.8 2.4t-11.6 5.8l-6.3-11.7a83 83 0 0 1 21-9.2q6-1.5 12.8-1.6a31 31 0 0 1 17 4.3q6.6 4.4 9.9 12.2a50 50 0 0 1 3.3 19V184H145l-1.2-9.6h-.7a71 71 0 0 1-12.4 8.2 31 31 0 0 1-14.4 3.5m5.2-13.8q5.4 0 10.4-2.5 4.8-2.5 10.2-7.3v-20.1a107 107 0 0 0-20.2 4q-7.5 2.5-10.6 6a12 12 0 0 0-3.2 8.4q0 6 3.9 8.8 3.8 2.7 9.5 2.7M848.8 176l-8-6.8 22.5-29.7L841 110l8-7 27.8 27.9v17.3Zm42 0-7.9-6.8 22.4-29.7L883 110l8-7 27.9 27.9v17.3Z"/></g>
  </symbol>
  <symbol overflow="visible" id="zoom" viewBox="0 0 291 107">
    <g fill-rule="evenodd"><path fill="#a2b1cf" stroke="#636d80" stroke-linecap="round" stroke-linejoin="round" stroke-width="5" d="M2.8 79.3c0 9 0 13.6 2 17a15 15 0 0 0 5.7 5.8c3.4 1.9 8 1.9 17 1.9h235.8c9 0 13.6 0 17-2a15 15 0 0 0 5.8-5.7c1.9-3.4 1.9-8 1.9-17V27.8c0-9 0-13.6-2-17a15 15 0 0 0-5.7-5.8c-3.4-2-8-2-17-2H27.6c-9.1 0-13.7 0-17 2a15 15 0 0 0-5.8 5.7c-2 3.5-2 8-2 17.1Z"/><path fill="#fdfffb" d="M149 72V38.3h5.6l.5 4.7h.3q2.1-2.3 4.7-4 2.5-1.6 5.7-1.6 3.8 0 6 1.7t3.3 4.6q2.4-2.7 5.2-4.5 2.7-1.8 5.8-1.8 5.3 0 7.8 3.5t2.5 9.8V72h-6.8V51.6q0-4.4-1.4-6.3-1.5-2-4.3-2-1.8 0-3.7 1.2t-4 3.5v24h-7V51.6q0-4.4-1.3-6.3-1.5-2-4.3-2-3.6 0-7.8 4.7v24Zm-24.9.8a15 15 0 0 1-13.6-8 19 19 0 0 1-2.3-9.6q0-5.7 2.3-9.6a16 16 0 0 1 5.8-6 15 15 0 0 1 15.5 0 16 16 0 0 1 5.9 6q2.2 4 2.2 9.6t-2.2 9.5a15.2 15.2 0 0 1-13.6 8.1m0-5.6q2.6 0 4.7-1.5 2-1.5 3-4.2t1-6.3-1-6.3a10 10 0 0 0-3-4.3 7 7 0 0 0-4.7-1.5q-2.6 0-4.7 1.5a10 10 0 0 0-3 4.3q-1.2 2.7-1.1 6.3t1 6.3a10 10 0 0 0 3.1 4.2q2 1.5 4.7 1.5m-38.4 5.6a15 15 0 0 1-13.6-8 19 19 0 0 1-2.2-9.6q0-5.7 2.2-9.6a16 16 0 0 1 5.8-6 15 15 0 0 1 15.6 0 16 16 0 0 1 5.8 6q2.2 4 2.2 9.6t-2.2 9.5a15.2 15.2 0 0 1-13.6 8.1m0-5.6q2.7 0 4.7-1.5t3-4.2 1.1-6.3-1-6.3a10 10 0 0 0-3.1-4.3 7 7 0 0 0-4.7-1.5q-2.7 0-4.6 1.5a10 10 0 0 0-3 4.3q-1.2 2.7-1.2 6.3t1.1 6.3a10 10 0 0 0 3 4.2q2.1 1.5 4.7 1.5M39.2 72v-3.7L56 43.8H41v-5.5h23.6v3.6L47.8 66.5h17.4V72ZM230 68.8 227 66l9-11.9-9-11.8 3.2-2.9 11.2 11.2v7Zm17 0-3.2-2.8 9-11.9-9-11.8 3.2-2.9 11.2 11.2v7Z"/></g>
  </symbol>
  <symbol overflow="visible" id="diasor" viewBox="0 0 312 107">
    <g fill-rule="evenodd"><path fill="#ecece1" stroke="#a4a39d" stroke-linecap="round" stroke-linejoin="round" stroke-width="5" d="M3.2 79.3c0 9 0 13.6 2 17a15 15 0 0 0 5.7 5.8c3.4 1.9 8 1.9 17 1.9h256.3c9.2 0 13.7 0 17.1-2a15 15 0 0 0 5.8-5.7c1.9-3.4 1.9-8 1.9-17V27.8c0-9 0-13.6-2-17a15 15 0 0 0-5.7-5.8c-3.4-2-8-2-17-2H28c-9.1 0-13.7 0-17.1 2A15 15 0 0 0 5 10.7c-1.9 3.5-1.9 8-1.9 17.1Z"/><path fill="#5d5d5e" d="M202.9 76V42.3h5.5l.6 6h.2q1.8-3.2 4.2-5a9 9 0 0 1 7.4-1.7l1.6.5-1.3 5.9a13 13 0 0 0-3.2-.4q-2 0-4.4 1.6-2.3 1.6-3.8 5.7V76Zm-25 .8a15 15 0 0 1-13.6-8 19 19 0 0 1-2.2-9.6q0-5.7 2.2-9.6a16 16 0 0 1 5.8-6 15 15 0 0 1 15.6 0 16 16 0 0 1 5.8 6q2.2 4 2.2 9.6t-2.2 9.5a15.2 15.2 0 0 1-13.6 8.1m0-5.6q2.7 0 4.7-1.5t3-4.2 1.1-6.3-1-6.3a10 10 0 0 0-3.1-4.3 7 7 0 0 0-4.7-1.5q-2.7 0-4.6 1.5a10 10 0 0 0-3 4.3q-1.2 2.7-1.2 6.3t1.1 6.3a10 10 0 0 0 3 4.2q2.1 1.5 4.7 1.5m-34.3 5.6q-3.7 0-7-1.2-3.3-1.3-5.7-3.7l3-3.9q2.2 1.7 4.6 2.7 2.4.9 5.3.9 3 0 4.5-1.4t1.5-3.2q0-1.6-1-2.6a9 9 0 0 0-2.8-1.8l-3.5-1.4q-2.6-1-4.7-2.2-2.3-1.4-3.7-3.1a7 7 0 0 1-1.4-4.6 9 9 0 0 1 3.3-7 13 13 0 0 1 8.8-2.9 16 16 0 0 1 10.8 4l-3 3.9q-1.8-1.2-3.7-2-1.8-.6-4-.6-3 0-4.3 1.3a4 4 0 0 0-1.4 3q0 1.3.9 2.3t2.4 1.6 3.7 1.4q2.7.9 5 2.2a11 11 0 0 1 3.7 3.1 8 8 0 0 1 1.4 5 10 10 0 0 1-5.7 8.8q-3 1.5-7 1.4m-37 0q-3 0-5.2-1.1t-3.5-3.4-1.3-5.2q0-5.7 4.9-8.6 4.8-3 15.4-4.1 0-1.8-.6-3.6-.5-1.6-2-2.6t-4-1q-2.7 0-5.1 1-2.5.9-4.7 2.3L98 45.8a34 34 0 0 1 8.4-3.7q2.5-.7 5.2-.7 4 0 6.8 1.8 2.7 1.6 4 4.9a20 20 0 0 1 1.3 7.6V76h-5.6l-.5-3.9h-.3a29 29 0 0 1-5 3.3q-2.7 1.5-5.8 1.4m2-5.6a9 9 0 0 0 4.2-1q2-1 4-2.9v-8a43 43 0 0 0-8 1.6 10 10 0 0 0-4.3 2.4q-1.3 1.4-1.3 3.3 0 2.6 1.6 3.6 1.5 1 3.8 1M80.3 76V42.3h6.8V76Zm3.5-40.2q-2 0-3.1-1.1a4 4 0 0 1-1.2-3q0-1.8 1.2-3 1.2-1 3-1 2 0 3.2 1a4 4 0 0 1 1.1 3 4 4 0 0 1-1.1 3q-1.2 1.1-3.1 1.1m-31 41q-6.4 0-10.2-4.6a20 20 0 0 1-3.8-13q0-5.5 2-9.5 2.1-3.9 5.4-6.1a13 13 0 0 1 12.1-1.2 19 19 0 0 1 4.1 2.8l-.2-5.6V27.1H69V76h-5.6l-.5-3.8h-.3a20 20 0 0 1-4.4 3.2q-2.6 1.5-5.5 1.4m1.6-5.6q2 0 4-1a14 14 0 0 0 3.8-3.2V50.3q-2-1.8-3.8-2.5t-3.8-.6q-2.4 0-4.3 1.4-2 1.5-3.2 4.1-1.2 2.7-1.2 6.4 0 5.8 2.2 9 2.2 3 6.3 3M251 70.8 248 68l9-11.9-9-11.8 3.2-2.9 11.2 11.2v7Zm17 0-3.2-2.8 9-11.9-9-11.8 3.2-2.9 11.2 11.2v7Z"/></g>
  </symbol>
  <symbol overflow="visible" id="osszes-eddigi-talalkozo" viewBox="0 0 809 107">
    <g fill-rule="evenodd"><path fill="#88888b" stroke="#323233" stroke-linecap="round" stroke-linejoin="round" stroke-width="5" d="M3.3 79.3c0 9 0 13.6 1.9 17a15 15 0 0 0 5.7 5.8c3.4 1.9 8 1.9 17.1 1.9h753.1c9.1 0 13.7 0 17.1-2a15 15 0 0 0 5.8-5.7c1.9-3.4 1.9-8 1.9-17V27.8c0-9 0-13.6-2-17a15 15 0 0 0-5.7-5.8c-3.4-2-8-2-17-2H28C19 3 14.3 3 11 5a15 15 0 0 0-5.8 5.7c-2 3.5-2 8-2 17.1Z"/><path fill="#f0f0e9" d="M699.5 75.8a15 15 0 0 1-13.7-8 19 19 0 0 1-2.2-9.6q0-5.7 2.2-9.6a16 16 0 0 1 5.9-6 15 15 0 0 1 15.5 0 16 16 0 0 1 5.8 6q2.3 4 2.3 9.6t-2.3 9.5a15.2 15.2 0 0 1-13.6 8.1m0-5.6q2.7 0 4.6-1.5 2-1.5 3-4.2 1.1-2.7 1.1-6.3t-1-6.3a10 10 0 0 0-3-4.3 7 7 0 0 0-4.7-1.5q-2.7 0-4.7 1.5a10 10 0 0 0-3 4.3q-1.2 2.7-1.2 6.3t1.1 6.3a10 10 0 0 0 3.1 4.2q2 1.5 4.7 1.5M694 35.7l8.6-11.7h7.4l.4.7-11 11ZM653 75v-3.7l16.7-24.5h-14.9v-5.5h23.6v3.6l-16.9 24.6H679V75Zm-21.3.8a15 15 0 0 1-13.6-8 19 19 0 0 1-2.3-9.6q0-5.7 2.3-9.6a16 16 0 0 1 5.8-6 15 15 0 0 1 15.5 0 16 16 0 0 1 5.9 6q2.2 4 2.2 9.6t-2.2 9.5a15.2 15.2 0 0 1-13.6 8.1m0-5.6q2.7 0 4.7-1.5t3-4.2 1-6.3-1-6.3a10 10 0 0 0-3-4.3 7 7 0 0 0-4.7-1.5q-2.7 0-4.6 1.5A10 10 0 0 0 624 52q-1 2.7-1.1 6.3 0 3.6 1 6.3a10 10 0 0 0 3.2 4.2q2 1.5 4.6 1.5M584 75V26h6.7v31.8h.2l13.3-16.5h7.6L600.4 55 613 75h-7.5l-9.2-15.4-5.7 6.6V75Zm-12 .7a7 7 0 0 1-4-1q-1.5-1-2.2-3-.7-1.8-.7-4.6v-41h6.8v41.4q0 1.5.5 2t1.2.5h.5l.7-.1 1 5.1a11 11 0 0 1-3.8.7m-34.8.1q-3 0-5.2-1.1t-3.5-3.4q-1.2-2.2-1.3-5.2 0-5.7 5-8.6 4.8-3 15.3-4.1 0-1.8-.6-3.6-.5-1.6-2-2.6t-4-1q-2.6 0-5 1-2.5.9-4.7 2.3l-2.6-4.7a34 34 0 0 1 8.5-3.7q2.4-.7 5.1-.7 4.1 0 6.9 1.8 2.5 1.6 4 4.9a20 20 0 0 1 1.3 7.6V75h-5.7l-.5-3.9h-.3a29 29 0 0 1-5 3.3q-2.5 1.5-5.7 1.4m2-5.6a9 9 0 0 0 4.2-1q2-1 4.1-2.9v-8a43 43 0 0 0-8 1.6 10 10 0 0 0-4.4 2.4q-1.2 1.4-1.2 3.3 0 2.6 1.5 3.6t3.9 1M537 35.7l8.7-11.7h7.4l.4.7-11 11Zm-19.8 40a7 7 0 0 1-4-1q-1.5-1-2.2-3-.6-1.8-.7-4.6v-41h6.9v41.4q0 1.5.5 2t1.2.5h.5l.7-.1 1 5.1a11 11 0 0 1-3.9.7m-34.7.1q-3 0-5.2-1.1t-3.5-3.4q-1.2-2.2-1.3-5.2 0-5.7 4.9-8.6 4.9-3 15.4-4.1 0-1.8-.6-3.6-.6-1.6-2-2.6-1.5-1-4-1-2.6 0-5 1-2.6.9-4.7 2.3l-2.6-4.7a34 34 0 0 1 8.5-3.7q2.4-.7 5.1-.7 4.2 0 6.8 1.8 2.8 1.6 4 4.9a20 20 0 0 1 1.3 7.6V75H494l-.5-3.9h-.3a29 29 0 0 1-5 3.3q-2.6 1.5-5.7 1.4m2-5.6a9 9 0 0 0 4.2-1q2-1 4.1-2.9v-8a43 43 0 0 0-8 1.6 10 10 0 0 0-4.4 2.4q-1.2 1.4-1.2 3.3 0 2.6 1.5 3.6t3.8 1m-22.1 5.5q-5.6 0-8-3.3-2.2-3.3-2.2-8.5V46.8h-5v-5.2l5.3-.3.9-10.7h5.7v10.7h8.8v5.5h-8.8V64q0 3 1.1 4.6t3.8 1.6q1 0 1.9-.2l1.8-.6 1.3 4.8q-1.3.7-3 1-1.8.5-3.6.5m-44-.7V41.3h6.8V75Zm3.4-40.2q-1.8 0-3-1.1a4 4 0 0 1-1.3-3q0-1.8 1.2-3 1.3-1 3.1-1 2 0 3.1 1a4 4 0 0 1 1.2 3 4 4 0 0 1-1.2 3q-1.2 1.1-3 1.1M394 90.2a24 24 0 0 1-7.2-1 11 11 0 0 1-5-3 7 7 0 0 1-1.8-5 7 7 0 0 1 1.3-4q1.4-1.8 3.6-3.3v-.3a9 9 0 0 1-2.1-2.2q-.9-1.4-.9-3.4a6 6 0 0 1 1.2-3.7q1.2-1.5 2.5-2.5v-.3a13 13 0 0 1-3-3.7q-1.4-2.3-1.4-5.3a11 11 0 0 1 6.6-10.6 14 14 0 0 1 9.1-1.2q1.3.1 2.2.6h12v5.1h-6.7v.3a9 9 0 0 1 2.4 6A11 11 0 0 1 405 59q-1.7 2.5-4.5 4a14 14 0 0 1-8.8 1l-2.4-.7q-.8.7-1.3 1.5t-.5 2.1q0 1.5 1.2 2.4 1.2 1 4.4 1h6.3q6 0 9 1.9 3 2 3 6.2 0 3.3-2 6a15 15 0 0 1-6.1 4.2q-4 1.5-9.4 1.6m.2-30.3a6 6 0 0 0 3.3-1q1.4-.8 2.3-2.5 1-1.6 1-3.9 0-3.4-2-5.3a6 6 0 0 0-4.6-2q-2.7 0-4.6 2a7 7 0 0 0-1.8 5.3q0 2.2.9 4 .9 1.6 2.3 2.5 1.5.9 3.2.9m.9 25.7q3 0 5.2-.8a8 8 0 0 0 3.4-2.2q1.2-1.5 1.2-3.1 0-2.1-1.6-3a11 11 0 0 0-4.7-.7h-5.2a19 19 0 0 1-4.5-.5q-1.5 1-2.3 2.4-.7 1.2-.7 2.6 0 2.5 2.4 4 2.6 1.3 6.8 1.3M364 75V41.3h6.9V75Zm3.5-40.2q-2 0-3-1.1a4 4 0 0 1-1.3-3q0-1.8 1.2-3 1.2-1 3-1 2 0 3.2 1a4 4 0 0 1 1.2 3 4 4 0 0 1-1.2 3q-1.2 1.1-3.1 1.1m-31 41q-6.4 0-10.1-4.6a20 20 0 0 1-3.8-13q0-5.5 2-9.5 2-3.9 5.3-6.1a13 13 0 0 1 12.1-1.2 19 19 0 0 1 4.2 2.8l-.3-5.6V26.1h6.8V75h-5.6l-.5-3.8h-.2a20 20 0 0 1-4.5 3.2q-2.5 1.5-5.5 1.4m1.6-5.6q2.1 0 4-1A14 14 0 0 0 346 66V49.3q-2-1.8-3.8-2.5t-3.7-.6q-2.4 0-4.4 1.4-2 1.5-3.2 4.1-1.2 2.7-1.2 6.4 0 5.8 2.2 9 2.3 3 6.3 3m-41 5.6q-6.2 0-10-4.6a20 20 0 0 1-3.8-13q0-5.5 2-9.5 2.1-3.9 5.4-6.1a13 13 0 0 1 12-1.2 19 19 0 0 1 4.2 2.8l-.3-5.6V26.1h6.9V75H308l-.6-3.8h-.2a20 20 0 0 1-4.5 3.2q-2.5 1.5-5.4 1.4m1.7-5.6q2.2 0 4-1a14 14 0 0 0 3.8-3.2V49.3q-2-1.8-3.7-2.5-1.9-.6-3.8-.6-2.4 0-4.4 1.4-1.9 1.5-3.2 4.1-1.2 2.7-1.2 6.4 0 5.8 2.2 9 2.3 3 6.3 3m-34.4 5.6q-4.7 0-8.4-2a15 15 0 0 1-6-6.1 19 19 0 0 1-2-9.5q0-5.6 2.1-9.5 2.3-4 5.7-6.1 3.6-2.2 7.5-2.2 4.5 0 7.5 2 3 2.1 4.6 5.7a21 21 0 0 1 1.2 12H253V55h18q0-4.4-1.9-6.6-1.7-2.3-5.6-2.3-2.1 0-4.1 1-2 1.2-3.3 3.9t-1.3 7.2q0 4.1 1.4 6.8 1.5 2.8 3.9 4 2.4 1.5 5.2 1.4a14 14 0 0 0 8.1-2.4l2.4 4.4a20 20 0 0 1-11.3 3.5m-49.5 0q-3.6 0-7-1.2-3.2-1.3-5.7-3.7l3-3.9q2.4 1.7 4.7 2.7 2.4.9 5.2.9 3 0 4.6-1.4t1.4-3.2q0-1.6-1-2.6a9 9 0 0 0-2.8-1.8q-1.5-.8-3.5-1.4-2.4-1-4.7-2.2-2.2-1.4-3.6-3.1a7 7 0 0 1-1.4-4.6 9 9 0 0 1 3.2-7 13 13 0 0 1 8.8-2.9 16 16 0 0 1 10.8 4l-3 3.9q-1.8-1.2-3.7-2-1.8-.6-4-.6-3 0-4.2 1.3a4 4 0 0 0-1.4 3q0 1.3.8 2.3t2.5 1.6 3.6 1.4q2.7.9 5 2.2a11 11 0 0 1 3.7 3.1 8 8 0 0 1 1.4 5 10 10 0 0 1-5.7 8.8q-2.8 1.5-7 1.4m-30.3 0q-4.6 0-8.4-2a15 15 0 0 1-5.9-6.1 19 19 0 0 1-2.2-9.5q0-5.6 2.2-9.5t5.8-6.1 7.4-2.2q4.5 0 7.5 2 3 2.1 4.6 5.7a21 21 0 0 1 1.2 12h-23.7V55h18q0-4.4-1.8-6.6-1.9-2.3-5.6-2.3-2.2 0-4.2 1-2 1.2-3.3 3.9T175 58q0 4.1 1.5 6.8 1.4 2.8 3.8 4 2.4 1.5 5.2 1.4a14 14 0 0 0 8.1-2.4l2.4 4.4a20 20 0 0 1-11.3 3.5m-47-.8v-3.7l16.7-24.5h-15v-5.5H163v3.6l-16.8 24.6h17.4V75Zm-17.9.8q-3.7 0-7-1.2-3.2-1.3-5.7-3.7l3-3.9q2.3 1.7 4.7 2.7 2.3.9 5.2.9t4.5-1.4T126 66q0-1.6-1-2.6a9 9 0 0 0-2.8-1.8l-3.5-1.4q-2.5-1-4.7-2.2-2.2-1.4-3.6-3.1a7 7 0 0 1-1.4-4.6 9 9 0 0 1 3.2-7 13 13 0 0 1 8.8-2.9 16 16 0 0 1 10.8 4l-3 3.9q-1.8-1.2-3.7-2-1.8-.6-4-.6-2.9 0-4.3 1.3a4 4 0 0 0-1.3 3q0 1.3.8 2.3t2.4 1.6 3.7 1.4q2.7.9 5 2.2a11 11 0 0 1 3.7 3.1 8 8 0 0 1 1.4 5 10 10 0 0 1-5.7 8.8q-2.9 1.5-7 1.4m-30 0q-3.7 0-7-1.2-3.3-1.3-5.7-3.7l3-3.9q2.2 1.7 4.7 2.7 2.3.9 5.2.9t4.5-1.4T96 66q0-1.6-1-2.6a9 9 0 0 0-2.8-1.8l-3.5-1.4q-2.5-1-4.7-2.2-2.2-1.4-3.7-3.1a7 7 0 0 1-1.3-4.6 9 9 0 0 1 3.2-7 13 13 0 0 1 8.8-2.9 16 16 0 0 1 10.8 4l-3 3.9q-1.9-1.2-3.7-2-1.9-.6-4-.6-3 0-4.3 1.3a4 4 0 0 0-1.4 3q0 1.3.9 2.3t2.4 1.6 3.7 1.4q2.6.9 5 2.2a11 11 0 0 1 3.7 3.1 8 8 0 0 1 1.4 5 10 10 0 0 1-5.7 8.8q-3 1.5-7 1.4m-33.8 0a15 15 0 0 1-13.6-8 19 19 0 0 1-2.3-9.6q0-5.7 2.3-9.6a16 16 0 0 1 5.8-6 15 15 0 0 1 15.5 0 16 16 0 0 1 5.8 6q2.3 4 2.3 9.6t-2.3 9.5A15.2 15.2 0 0 1 56 75.8m0-5.6q2.7 0 4.6-1.5 2-1.5 3-4.2 1.2-2.7 1.1-6.3t-1-6.3a10 10 0 0 0-3-4.3 7 7 0 0 0-4.7-1.5q-2.7 0-4.7 1.5a10 10 0 0 0-3 4.3Q47 54.6 47 58.2t1.2 6.3a10 10 0 0 0 3 4.2q2 1.5 4.7 1.5m-7-35.4q-1.5 0-2.6-1.1a4 4 0 0 1-1.1-2.7q0-1.7 1-2.7 1.2-1.1 2.8-1.1t2.8 1q1 1.2 1 2.8a3.7 3.7 0 0 1-3.8 3.8m13.9 0A3.7 3.7 0 0 1 59 31q0-1.7 1.1-2.7t2.8-1.1 2.7 1 1 2.8a3.7 3.7 0 0 1-3.7 3.8M746 69.8 743 67l9-11.9-9-11.8 3.2-2.9 11.2 11.2v7Zm17 0-3.2-2.8 9-11.9-9-11.8 3.2-2.9 11.2 11.2v7Z"/></g>
  </symbol>
</svg>
