<svg xmlns="http://www.w3.org/2000/svg" width="312" height="107"><g fill-rule="evenodd"><path fill="#ecece1" stroke="#a4a39d" stroke-linecap="round" stroke-linejoin="round" stroke-width="5" d="M3.2 79.3c0 9 0 13.6 2 17a15 15 0 0 0 5.7 5.8c3.4 1.9 8 1.9 17 1.9h256.3c9.2 0 13.7 0 17.1-2a15 15 0 0 0 5.8-5.7c1.9-3.4 1.9-8 1.9-17V27.8c0-9 0-13.6-2-17a15 15 0 0 0-5.7-5.8c-3.4-2-8-2-17-2H28c-9.1 0-13.7 0-17.1 2A15 15 0 0 0 5 10.7c-1.9 3.5-1.9 8-1.9 17.1Z"/><path fill="#5d5d5e" d="M202.9 76V42.3h5.5l.6 6h.2q1.8-3.2 4.2-5a9 9 0 0 1 7.4-1.7l1.6.5-1.3 5.9a13 13 0 0 0-3.2-.4q-2 0-4.4 1.6-2.3 1.6-3.8 5.7V76Zm-25 .8a15 15 0 0 1-13.6-8 19 19 0 0 1-2.2-9.6q0-5.7 2.2-9.6a16 16 0 0 1 5.8-6 15 15 0 0 1 15.6 0 16 16 0 0 1 5.8 6q2.2 4 2.2 9.6t-2.2 9.5a15.2 15.2 0 0 1-13.6 8.1m0-5.6q2.7 0 4.7-1.5t3-4.2 1.1-6.3-1-6.3a10 10 0 0 0-3.1-4.3 7 7 0 0 0-4.7-1.5q-2.7 0-4.6 1.5a10 10 0 0 0-3 4.3q-1.2 2.7-1.2 6.3t1.1 6.3a10 10 0 0 0 3 4.2q2.1 1.5 4.7 1.5m-34.3 5.6q-3.7 0-7-1.2-3.3-1.3-5.7-3.7l3-3.9q2.2 1.7 4.6 2.7 2.4.9 5.3.9 3 0 4.5-1.4t1.5-3.2q0-1.6-1-2.6a9 9 0 0 0-2.8-1.8l-3.5-1.4q-2.6-1-4.7-2.2-2.3-1.4-3.7-3.1a7 7 0 0 1-1.4-4.6 9 9 0 0 1 3.3-7 13 13 0 0 1 8.8-2.9 16 16 0 0 1 10.8 4l-3 3.9q-1.8-1.2-3.7-2-1.8-.6-4-.6-3 0-4.3 1.3a4 4 0 0 0-1.4 3q0 1.3.9 2.3t2.4 1.6 3.7 1.4q2.7.9 5 2.2a11 11 0 0 1 3.7 3.1 8 8 0 0 1 1.4 5 10 10 0 0 1-5.7 8.8q-3 1.5-7 1.4m-37 0q-3 0-5.2-1.1t-3.5-3.4-1.3-5.2q0-5.7 4.9-8.6 4.8-3 15.4-4.1 0-1.8-.6-3.6-.5-1.6-2-2.6t-4-1q-2.7 0-5.1 1-2.5.9-4.7 2.3L98 45.8a34 34 0 0 1 8.4-3.7q2.5-.7 5.2-.7 4 0 6.8 1.8 2.7 1.6 4 4.9a20 20 0 0 1 1.3 7.6V76h-5.6l-.5-3.9h-.3a29 29 0 0 1-5 3.3q-2.7 1.5-5.8 1.4m2-5.6a9 9 0 0 0 4.2-1q2-1 4-2.9v-8a43 43 0 0 0-8 1.6 10 10 0 0 0-4.3 2.4q-1.3 1.4-1.3 3.3 0 2.6 1.6 3.6 1.5 1 3.8 1M80.3 76V42.3h6.8V76Zm3.5-40.2q-2 0-3.1-1.1a4 4 0 0 1-1.2-3q0-1.8 1.2-3 1.2-1 3-1 2 0 3.2 1a4 4 0 0 1 1.1 3 4 4 0 0 1-1.1 3q-1.2 1.1-3.1 1.1m-31 41q-6.4 0-10.2-4.6a20 20 0 0 1-3.8-13q0-5.5 2-9.5 2.1-3.9 5.4-6.1a13 13 0 0 1 12.1-1.2 19 19 0 0 1 4.1 2.8l-.2-5.6V27.1H69V76h-5.6l-.5-3.8h-.3a20 20 0 0 1-4.4 3.2q-2.6 1.5-5.5 1.4m1.6-5.6q2 0 4-1a14 14 0 0 0 3.8-3.2V50.3q-2-1.8-3.8-2.5t-3.8-.6q-2.4 0-4.3 1.4-2 1.5-3.2 4.1-1.2 2.7-1.2 6.4 0 5.8 2.2 9 2.2 3 6.3 3M251 70.8 248 68l9-11.9-9-11.8 3.2-2.9 11.2 11.2v7Zm17 0-3.2-2.8 9-11.9-9-11.8 3.2-2.9 11.2 11.2v7Z"/></g></svg>