<svg xmlns="http://www.w3.org/2000/svg" width="291" height="107"><g fill-rule="evenodd"><path fill="#a2b1cf" stroke="#636d80" stroke-linecap="round" stroke-linejoin="round" stroke-width="5" d="M2.8 79.3c0 9 0 13.6 2 17a15 15 0 0 0 5.7 5.8c3.4 1.9 8 1.9 17 1.9h235.8c9 0 13.6 0 17-2a15 15 0 0 0 5.8-5.7c1.9-3.4 1.9-8 1.9-17V27.8c0-9 0-13.6-2-17a15 15 0 0 0-5.7-5.8c-3.4-2-8-2-17-2H27.6c-9.1 0-13.7 0-17 2a15 15 0 0 0-5.8 5.7c-2 3.5-2 8-2 17.1Z"/><path fill="#fdfffb" d="M149 72V38.3h5.6l.5 4.7h.3q2.1-2.3 4.7-4 2.5-1.6 5.7-1.6 3.8 0 6 1.7t3.3 4.6q2.4-2.7 5.2-4.5 2.7-1.8 5.8-1.8 5.3 0 7.8 3.5t2.5 9.8V72h-6.8V51.6q0-4.4-1.4-6.3-1.5-2-4.3-2-1.8 0-3.7 1.2t-4 3.5v24h-7V51.6q0-4.4-1.3-6.3-1.5-2-4.3-2-3.6 0-7.8 4.7v24Zm-24.9.8a15 15 0 0 1-13.6-8 19 19 0 0 1-2.3-9.6q0-5.7 2.3-9.6a16 16 0 0 1 5.8-6 15 15 0 0 1 15.5 0 16 16 0 0 1 5.9 6q2.2 4 2.2 9.6t-2.2 9.5a15.2 15.2 0 0 1-13.6 8.1m0-5.6q2.6 0 4.7-1.5 2-1.5 3-4.2t1-6.3-1-6.3a10 10 0 0 0-3-4.3 7 7 0 0 0-4.7-1.5q-2.6 0-4.7 1.5a10 10 0 0 0-3 4.3q-1.2 2.7-1.1 6.3t1 6.3a10 10 0 0 0 3.1 4.2q2 1.5 4.7 1.5m-38.4 5.6a15 15 0 0 1-13.6-8 19 19 0 0 1-2.2-9.6q0-5.7 2.2-9.6a16 16 0 0 1 5.8-6 15 15 0 0 1 15.6 0 16 16 0 0 1 5.8 6q2.2 4 2.2 9.6t-2.2 9.5a15.2 15.2 0 0 1-13.6 8.1m0-5.6q2.7 0 4.7-1.5t3-4.2 1.1-6.3-1-6.3a10 10 0 0 0-3.1-4.3 7 7 0 0 0-4.7-1.5q-2.7 0-4.6 1.5a10 10 0 0 0-3 4.3q-1.2 2.7-1.2 6.3t1.1 6.3a10 10 0 0 0 3 4.2q2.1 1.5 4.7 1.5M39.2 72v-3.7L56 43.8H41v-5.5h23.6v3.6L47.8 66.5h17.4V72ZM230 68.8 227 66l9-11.9-9-11.8 3.2-2.9 11.2 11.2v7Zm17 0-3.2-2.8 9-11.9-9-11.8 3.2-2.9 11.2 11.2v7Z"/></g></svg>